<svg xmlns="http://www.w3.org/2000/svg" width="1240" height="360" viewBox="0 0 1240 360">
<rect width="1240" height="360" fill="#f8fbff"/>
<text x="40" y="45" font-size="30" font-family="Arial" fill="#10233f" font-weight="700">Stitch 团队落地路线图（推荐）</text>
<defs><marker id="arr" markerWidth="10" markerHeight="10" refX="8" refY="3" orient="auto"><polygon points="0 0, 10 3, 0 6" fill="#2b6ef2"/></marker></defs>
<rect x="70" y="120" rx="14" ry="14" width="250" height="150" fill="#eaf2ff" stroke="#3b5b8f" stroke-width="2"/><text x="195" y="178" text-anchor="middle" font-size="24" font-family="Arial" fill="#1a2a4a" font-weight="700">1. 输入意图</text><text x="195" y="215" text-anchor="middle" font-size="18" font-family="Arial" fill="#324767">目标/用户/关键路径</text><line x1="320" y1="195" x2="370" y2="195" stroke="#2b6ef2" stroke-width="4" marker-end="url(#arr)"/><rect x="360" y="120" rx="14" ry="14" width="250" height="150" fill="#eaf2ff" stroke="#3b5b8f" stroke-width="2"/><text x="485" y="178" text-anchor="middle" font-size="24" font-family="Arial" fill="#1a2a4a" font-weight="700">2. 并行生成</text><text x="485" y="215" text-anchor="middle" font-size="18" font-family="Arial" fill="#324767">至少3个方向</text><line x1="610" y1="195" x2="660" y2="195" stroke="#2b6ef2" stroke-width="4" marker-end="url(#arr)"/><rect x="650" y="120" rx="14" ry="14" width="250" height="150" fill="#eaf2ff" stroke="#3b5b8f" stroke-width="2"/><text x="775" y="178" text-anchor="middle" font-size="24" font-family="Arial" fill="#1a2a4a" font-weight="700">3. 流程评审</text><text x="775" y="215" text-anchor="middle" font-size="18" font-family="Arial" fill="#324767">优先评审交互路径</text><line x1="900" y1="195" x2="950" y2="195" stroke="#2b6ef2" stroke-width="4" marker-end="url(#arr)"/><rect x="940" y="120" rx="14" ry="14" width="250" height="150" fill="#eaf2ff" stroke="#3b5b8f" stroke-width="2"/><text x="1065" y="178" text-anchor="middle" font-size="24" font-family="Arial" fill="#1a2a4a" font-weight="700">4. 导出精修</text><text x="1065" y="215" text-anchor="middle" font-size="18" font-family="Arial" fill="#324767">设计系统+前端实现</text></svg>