<svg xmlns="http://www.w3.org/2000/svg" width="1080" height="520" viewBox="0 0 1080 520">
<rect width="1080" height="520" fill="#ffffff"/>
<text x="40" y="45" font-size="30" font-family="Arial" fill="#10233f" font-weight="700">Stitch 采用决策评分卡（5分制）</text>
<g font-family="Arial" font-size="18" fill="#1f2f4f">
  <text x="330" y="95">立即采用</text><text x="520" y="95">小范围试点</text><text x="740" y="95">暂缓采用</text>
  <text x="80" y="150">探索速度</text><text x="80" y="215">流程连贯</text><text x="80" y="280">品牌一致性</text><text x="80" y="345">可维护性</text><text x="80" y="410">团队学习成本</text>
</g>
<rect x="290" y="115" width="182" height="50" fill="#3b88c3" stroke="#d2e2f0"/><text x="381.0" y="149" text-anchor="middle" font-size="24" font-family="Arial" fill="#10233f" font-weight="700">5</text><rect x="480" y="115" width="182" height="50" fill="#7fb8e3" stroke="#d2e2f0"/><text x="571.0" y="149" text-anchor="middle" font-size="24" font-family="Arial" fill="#10233f" font-weight="700">4</text><rect x="670" y="115" width="182" height="50" fill="#d7e9f7" stroke="#d2e2f0"/><text x="761.0" y="149" text-anchor="middle" font-size="24" font-family="Arial" fill="#10233f" font-weight="700">2</text><rect x="290" y="173" width="182" height="50" fill="#7fb8e3" stroke="#d2e2f0"/><text x="381.0" y="207" text-anchor="middle" font-size="24" font-family="Arial" fill="#10233f" font-weight="700">4</text><rect x="480" y="173" width="182" height="50" fill="#7fb8e3" stroke="#d2e2f0"/><text x="571.0" y="207" text-anchor="middle" font-size="24" font-family="Arial" fill="#10233f" font-weight="700">4</text><rect x="670" y="173" width="182" height="50" fill="#d7e9f7" stroke="#d2e2f0"/><text x="761.0" y="207" text-anchor="middle" font-size="24" font-family="Arial" fill="#10233f" font-weight="700">2</text><rect x="290" y="231" width="182" height="50" fill="#d7e9f7" stroke="#d2e2f0"/><text x="381.0" y="265" text-anchor="middle" font-size="24" font-family="Arial" fill="#10233f" font-weight="700">2</text><rect x="480" y="231" width="182" height="50" fill="#b5d7f0" stroke="#d2e2f0"/><text x="571.0" y="265" text-anchor="middle" font-size="24" font-family="Arial" fill="#10233f" font-weight="700">3</text><rect x="670" y="231" width="182" height="50" fill="#3b88c3" stroke="#d2e2f0"/><text x="761.0" y="265" text-anchor="middle" font-size="24" font-family="Arial" fill="#10233f" font-weight="700">5</text><rect x="290" y="289" width="182" height="50" fill="#d7e9f7" stroke="#d2e2f0"/><text x="381.0" y="323" text-anchor="middle" font-size="24" font-family="Arial" fill="#10233f" font-weight="700">2</text><rect x="480" y="289" width="182" height="50" fill="#b5d7f0" stroke="#d2e2f0"/><text x="571.0" y="323" text-anchor="middle" font-size="24" font-family="Arial" fill="#10233f" font-weight="700">3</text><rect x="670" y="289" width="182" height="50" fill="#3b88c3" stroke="#d2e2f0"/><text x="761.0" y="323" text-anchor="middle" font-size="24" font-family="Arial" fill="#10233f" font-weight="700">5</text><rect x="290" y="347" width="182" height="50" fill="#d7e9f7" stroke="#d2e2f0"/><text x="381.0" y="381" text-anchor="middle" font-size="24" font-family="Arial" fill="#10233f" font-weight="700">2</text><rect x="480" y="347" width="182" height="50" fill="#7fb8e3" stroke="#d2e2f0"/><text x="571.0" y="381" text-anchor="middle" font-size="24" font-family="Arial" fill="#10233f" font-weight="700">4</text><rect x="670" y="347" width="182" height="50" fill="#3b88c3" stroke="#d2e2f0"/><text x="761.0" y="381" text-anchor="middle" font-size="24" font-family="Arial" fill="#10233f" font-weight="700">5</text><text x="840" y="475" font-size="15" font-family="Arial" fill="#506180">分值越高越适合该策略</text></svg>