<svg xmlns="http://www.w3.org/2000/svg" width="1240" height="430" viewBox="0 0 1240 430">
<rect width="1240" height="430" fill="#ffffff"/>
<text x="40" y="45" font-size="30" font-family="Arial" fill="#10233f" font-weight="700">Stitch 协作时序（从想法到交付）</text>
<g font-family="Arial" font-size="18" fill="#1f2f4f" font-weight="700">
  <text x="90" y="95">PM</text><text x="380" y="95">Stitch</text><text x="670" y="95">Design System</text><text x="980" y="95">Frontend</text>
</g>
<line x1="110" y1="110" x2="110" y2="390" stroke="#b9c6d8"/>
<line x1="420" y1="110" x2="420" y2="390" stroke="#b9c6d8"/>
<line x1="760" y1="110" x2="760" y2="390" stroke="#b9c6d8"/>
<line x1="1040" y1="110" x2="1040" y2="390" stroke="#b9c6d8"/>
<defs><marker id="m" markerWidth="10" markerHeight="10" refX="8" refY="3" orient="auto"><polygon points="0 0, 10 3, 0 6" fill="#2b6ef2"/></marker></defs>
<line x1="120" y1="145" x2="410" y2="145" stroke="#2b6ef2" stroke-width="3" marker-end="url(#m)"/><text x="180" y="136" font-size="15" font-family="Arial">输入目标/用户/任务路径</text>
<line x1="430" y1="195" x2="120" y2="195" stroke="#2b6ef2" stroke-width="3" marker-end="url(#m)"/><text x="200" y="186" font-size="15" font-family="Arial">返回多个高保真方向</text>
<line x1="120" y1="245" x2="410" y2="245" stroke="#2b6ef2" stroke-width="3" marker-end="url(#m)"/><text x="210" y="236" font-size="15" font-family="Arial">迭代并串联关键屏幕</text>
<line x1="430" y1="295" x2="750" y2="295" stroke="#2b6ef2" stroke-width="3" marker-end="url(#m)"/><text x="500" y="286" font-size="15" font-family="Arial">导出评审后方案</text>
<line x1="770" y1="345" x2="1030" y2="345" stroke="#2b6ef2" stroke-width="3" marker-end="url(#m)"/><text x="820" y="336" font-size="15" font-family="Arial">组件化交付实现</text>
</svg>