<svg width="1200" height="720" viewBox="0 0 1200 720" fill="none" xmlns="http://www.w3.org/2000/svg">
  <defs>
    <linearGradient id="bg" x1="0" y1="0" x2="1200" y2="720" gradientUnits="userSpaceOnUse">
      <stop stop-color="#10212D"/>
      <stop offset="0.5" stop-color="#143543"/>
      <stop offset="1" stop-color="#1D4E63"/>
    </linearGradient>
    <linearGradient id="glass" x1="170" y1="120" x2="980" y2="590" gradientUnits="userSpaceOnUse">
      <stop stop-color="rgba(255,255,255,0.22)"/>
      <stop offset="1" stop-color="rgba(255,255,255,0.08)"/>
    </linearGradient>
  </defs>
  <rect width="1200" height="720" fill="url(#bg)"/>
  <circle cx="1030" cy="120" r="180" fill="#34D399" fill-opacity="0.18"/>
  <circle cx="160" cy="610" r="210" fill="#FBBF24" fill-opacity="0.12"/>
  <circle cx="910" cy="620" r="140" fill="#93C5FD" fill-opacity="0.12"/>
  <rect x="130" y="120" width="940" height="480" rx="28" fill="#0F1D27" fill-opacity="0.65" stroke="#D1FAE5" stroke-opacity="0.22"/>
  <rect x="180" y="180" width="230" height="48" rx="24" fill="#0F766E"/>
  <text x="295" y="212" text-anchor="middle" fill="#ECFDF5" font-size="24" font-family="Arial, PingFang SC, Microsoft YaHei, sans-serif">Jimmy Wang Blog</text>
  <text x="180" y="320" fill="#F8FAFC" font-size="64" font-weight="700" font-family="Arial, PingFang SC, Microsoft YaHei, sans-serif">Technical Notes</text>
  <text x="180" y="394" fill="#D1D5DB" font-size="34" font-family="Arial, PingFang SC, Microsoft YaHei, sans-serif">Projects · Debugging · Full-Stack · AI Tooling</text>
  <rect x="180" y="462" width="540" height="12" rx="6" fill="#1F2937"/>
  <rect x="180" y="462" width="298" height="12" rx="6" fill="#2DD4BF"/>
  <rect x="780" y="238" width="190" height="190" rx="30" fill="#0F172A" fill-opacity="0.68" stroke="#CFFAFE" stroke-opacity="0.18"/>
  <path d="M830 332H920" stroke="#5EEAD4" stroke-width="20" stroke-linecap="round"/>
  <path d="M875 286V378" stroke="#5EEAD4" stroke-width="20" stroke-linecap="round"/>
  <text x="180" y="540" fill="#94A3B8" font-size="28" font-family="Arial, PingFang SC, Microsoft YaHei, sans-serif">Default article cover for posts without custom artwork</text>
</svg>
